<?xml version="1.0" encoding="UTF-8" standalone="no"?>
<svg
   xmlns:dc="http://purl.org/dc/elements/1.1/"
   xmlns:cc="http://creativecommons.org/ns#"
   xmlns:rdf="http://www.w3.org/1999/02/22-rdf-syntax-ns#"
   xmlns:svg="http://www.w3.org/2000/svg"
   xmlns="http://www.w3.org/2000/svg"
   xmlns:sodipodi="http://sodipodi.sourceforge.net/DTD/sodipodi-0.dtd"
   xmlns:inkscape="http://www.inkscape.org/namespaces/inkscape"
   width="692.71381"
   height="227.68279"
   viewBox="0 0 183.28053 60.241071"
   version="1.1"
   id="svg8"
   sodipodi:docname="Oculus_VR.svg"
   inkscape:version="1.0.1 (3bc2e813f5, 2020-09-07)">
  <sodipodi:namedview
     pagecolor="#ffffff"
     bordercolor="#666666"
     borderopacity="1"
     objecttolerance="10"
     gridtolerance="10"
     guidetolerance="10"
     inkscape:pageopacity="0"
     inkscape:pageshadow="2"
     inkscape:window-width="2560"
     inkscape:window-height="1377"
     id="namedview13"
     showgrid="false"
     inkscape:zoom="1.5042287"
     inkscape:cx="346.3569"
     inkscape:cy="113.84139"
     inkscape:window-x="-8"
     inkscape:window-y="-8"
     inkscape:window-maximized="1"
     inkscape:current-layer="svg8" />
  <defs
     id="defs2" />
  <metadata
     id="metadata5">
    <rdf:RDF>
      <cc:Work
         rdf:about="">
        <dc:format>image/svg+xml</dc:format>
        <dc:type
           rdf:resource="http://purl.org/dc/dcmitype/StillImage" />
        <dc:title />
      </cc:Work>
    </rdf:RDF>
  </metadata>
  <g
     id="layer1"
     transform="translate(-12.359737,-80.181441)">
    <g
       id="g847"
       transform="matrix(0.1367568,0,0,0.1367568,35.621649,-76.081914)">
      <path
         fill-rule="evenodd"
         clip-rule="evenodd"
         d="m 610.12674,1142.7327 c 17.63966,-0.1595 35.29405,-0.086 52.95508,-0.022 -0.0508,113.9502 -0.0508,227.9311 0,341.8826 -17.63825,0.2693 -35.29263,0.087 -52.9256,0.087 0.10846,-113.9729 0.1529,-227.9752 -0.0296,-341.9482 z"
         id="path835"
         style="stroke-width:1.3402" />
      <path
         fill-rule="evenodd"
         clip-rule="evenodd"
         d="m 1024.7777,1266.1512 c 21.9082,-13.3858 48.81,-16.3892 73.9036,-12.9421 22.0678,2.5892 42.8328,11.8726 61.0474,24.3365 -9.0599,11.6477 -17.6317,23.6959 -26.1165,35.7792 -8.9068,-4.2244 -17.1156,-8.8547 -26.4969,-11.3058 -17.6181,-6.429 -47.8584,-8.1673 -60.9601,7.6337 -6.3393,7.8816 -2.7327,20.4822 6.2306,24.7131 17.8808,10.2001 39.2797,10.6009 58.4525,17.298 20.1043,6.1729 40.3681,17.0579 51.2531,35.7872 9.4377,15.5168 10.0836,35.243 4.2739,52.1629 -7.3657,21.1298 -25.339,37.0083 -46.1777,44.331 -47.648,16.2795 -102.3321,3.2502 -140.62934,-28.546 9.1978,-12.5577 18.3233,-25.2023 28.21234,-37.2494 20.1257,13.7853 43.1958,25.2948 68.1718,25.1636 14.186,0.7126 30.4653,-1.4246 40.238,-12.8472 7.9326,-9.4525 4.0567,-21.9217 -5.46,-28.5971 -8.2825,-5.8097 -18.1715,-9.1536 -28.0959,-10.9736 -21.6602,-5.0966 -44.4394,-8.616 -63.5708,-20.7288 -16.2285,-10.2163 -27.69494,-28.8089 -26.73554,-48.3166 -0.6232,-22.7459 13.40344,-44.1019 32.45954,-55.6986 z"
         id="path837"
         style="stroke-width:1.3402" />
      <path
         fill-rule="evenodd"
         clip-rule="evenodd"
         d="m 137.96515,1283.2668 c 42.52841,-35.7295 109.67891,-35.1773 153.01144,-1.0185 -10.35435,13.7999 -21.37745,27.0921 -32.01861,40.675 -16.6318,-10.4201 -36.64899,-15.7418 -56.22254,-12.4706 -19.01469,2.5893 -37.2936,14.4769 -44.92735,32.4663 -12.95971,27.0558 -6.61653,63.5253 17.72006,82.0963 25.85237,19.2532 65.3305,15.6253 88.34969,-6.5066 12.67021,12.0039 24.36075,25.0041 36.82722,37.2064 -41.59294,43.9088 -117.78306,47.006 -163.40465,7.6848 -25.78267,-22.1549 -39.14308,-56.6931 -38.20897,-90.3346 -0.6004,-33.5718 13.09104,-67.862 38.87371,-89.7985 z"
         id="path839"
         style="stroke-width:1.3402" />
      <path
         fill-rule="evenodd"
         clip-rule="evenodd"
         d="m -75.159402,1259.3163 c 26.608227,-4.1224 54.929226,-0.3123 78.3304048,13.4435 25.6526582,13.9594 44.2398282,39.1698 52.1228482,67.0901 8.46333,31.3231 5.12224,66.2163 -11.28444,94.4435 -15.78884,27.2302 -43.66624436,46.9123 -74.480005,53.0638 -27.742058,5.0981 -57.600257,1.8481 -82.202216,-12.4693 -24.6703,-13.4516 -43.2414,-37.075 -51.47959,-63.8401 -10.21896,-30.677 -7.08158,-65.4109 8.01573,-93.9557 15.78613,-30.7496 46.95642,-52.5491 80.977268,-57.7758 z m 2.185852,52.6563 c -17.591391,4.6035 -32.9554,17.6544 -39.52101,34.7337 -7.37241,16.7376 -7.48231,36.3327 -0.4034,53.2097 7.50376,20.2423 27.208631,34.9364 48.584754,37.0741 11.844632,1.0252 24.245464,0.5305 35.268572,-4.3197 18.790879,-7.7502 32.7516948,-25.9206 35.5580778,-46.0263 2.8291414,-17.2108 0.400713,-35.8891 -9.52745,-50.5628 -9.0851988,-14.0694 -24.7400178,-22.7793 -40.9255428,-25.8713 -9.708392,-0.7302 -19.574901,-0.7102 -29.034001,1.7626 z"
         id="path841"
         style="stroke-width:1.3402" />
      <path
         fill-rule="evenodd"
         clip-rule="evenodd"
         d="m 721.25703,1262.9869 c 17.63296,-0.2022 35.27125,-0.1594 52.88265,-0.043 -0.11626,35.3089 -0.15289,70.6229 0.18221,105.9385 0.32697,18.5697 1.97809,38.7839 13.50912,54.1263 20.48211,26.386 66.52997,23.7094 84.76483,-3.92 7.88288,-12.295 10.48561,-27.2516 10.41983,-41.6331 0.086,-38.1874 0.15959,-76.3964 0.043,-114.5761 17.63172,-0.029 35.29409,-0.029 52.92569,0.016 0.065,73.8812 0.1099,147.7768 -0.024,221.6577 -15.3641,0.4008 -30.74814,-0.024 -46.11224,0.248 -0.35628,-6.9958 -0.92995,-13.9675 -1.66449,-20.9125 -36.23211,32.1083 -96.3051,34.8195 -133.83708,3.5422 -19.28405,-15.9671 -29.01118,-40.7032 -31.26542,-65.1483 -3.40272,-46.34 -1.13513,-92.8755 -1.82533,-139.2946 z"
         id="path843"
         style="stroke-width:1.3402" />
      <path
         fill-rule="evenodd"
         clip-rule="evenodd"
         d="m 334.10409,1395.8661 c -1.51575,-44.3096 -0.78136,-88.6419 -0.9167,-132.973 17.67985,0 35.35836,-0.1741 53.03821,0.1402 -0.0658,37.4518 -0.1783,74.9195 0.26538,112.394 0.44626,17.6117 3.20705,37.0245 15.60791,50.5188 21.60261,23.0207 63.59228,19.6391 81.74125,-6.0122 8.87746,-12.9141 11.7495,-28.7928 11.7495,-44.9207 l -0.44361,-112.0027 c 17.41717,-0.3779 34.8317,0.066 52.25957,-0.248 0.4731,73.9467 0,147.8852 0.22517,221.8305 -15.18173,-0.043 -30.43584,0.713 -45.5747,-0.2908 -1.22896,-6.7466 -1.40317,-13.6257 -2.02905,-20.4167 -38.36448,33.9339 -104.25118,35.2286 -140.34532,-2.7407 -16.98294,-17.2536 -23.66382,-41.7631 -25.57761,-65.2781 z"
         id="path845"
         style="stroke-width:1.3402" />
    </g>
  </g>
</svg>
