<?xml version="1.0" encoding="UTF-8" standalone="no"?>
<svg
   xmlns:dc="http://purl.org/dc/elements/1.1/"
   xmlns:cc="http://creativecommons.org/ns#"
   xmlns:rdf="http://www.w3.org/1999/02/22-rdf-syntax-ns#"
   xmlns:svg="http://www.w3.org/2000/svg"
   xmlns="http://www.w3.org/2000/svg"
   xmlns:sodipodi="http://sodipodi.sourceforge.net/DTD/sodipodi-0.dtd"
   xmlns:inkscape="http://www.inkscape.org/namespaces/inkscape"
   width="1024"
   height="1024"
   viewBox="0 0 1024 1024"
   version="1.1"
   id="svg8"
   inkscape:version="1.0.1 (3bc2e813f5, 2020-09-07)"
   sodipodi:docname="retical.svg">
  <defs
     id="defs2">
    <inkscape:path-effect
       effect="spiro"
       id="path-effect1201"
       is_visible="true"
       lpeversion="1" />
    <inkscape:path-effect
       effect="spiro"
       id="path-effect1197"
       is_visible="true"
       lpeversion="1" />
    <marker
       style="overflow:visible"
       id="DiamondM"
       refX="0.0"
       refY="0.0"
       orient="auto"
       inkscape:stockid="DiamondM"
       inkscape:isstock="true">
      <path
         transform="scale(0.4)"
         style="fill-rule:evenodd;stroke:#000000;stroke-width:1pt;stroke-opacity:1;fill:#000000;fill-opacity:1"
         d="M 0,-7.0710768 L -7.0710894,0 L 0,7.0710589 L 7.0710462,0 L 0,-7.0710768 z "
         id="path939" />
    </marker>
    <marker
       style="overflow:visible"
       id="marker1135"
       refX="0.0"
       refY="0.0"
       orient="auto"
       inkscape:stockid="Arrow1Lstart"
       inkscape:isstock="true">
      <path
         transform="scale(0.8) translate(12.5,0)"
         style="fill-rule:evenodd;stroke:#000000;stroke-width:1pt;stroke-opacity:1;fill:#000000;fill-opacity:1"
         d="M 0.0,0.0 L 5.0,-5.0 L -12.5,0.0 L 5.0,5.0 L 0.0,0.0 z "
         id="path1133" />
    </marker>
    <marker
       style="overflow:visible"
       id="Arrow1Lstart"
       refX="0.0"
       refY="0.0"
       orient="auto"
       inkscape:stockid="Arrow1Lstart"
       inkscape:isstock="true">
      <path
         transform="scale(0.8) translate(12.5,0)"
         style="fill-rule:evenodd;stroke:#000000;stroke-width:1pt;stroke-opacity:1;fill:#000000;fill-opacity:1"
         d="M 0.0,0.0 L 5.0,-5.0 L -12.5,0.0 L 5.0,5.0 L 0.0,0.0 z "
         id="path857" />
    </marker>
    <inkscape:path-effect
       effect="spiro"
       id="path-effect32"
       is_visible="true"
       lpeversion="1" />
    <inkscape:path-effect
       effect="spiro"
       id="path-effect28"
       is_visible="true"
       lpeversion="1" />
    <inkscape:path-effect
       effect="spiro"
       id="path-effect24"
       is_visible="true"
       lpeversion="1" />
    <inkscape:path-effect
       effect="spiro"
       id="path-effect20"
       is_visible="true"
       lpeversion="1" />
    <inkscape:path-effect
       effect="spiro"
       id="path-effect16"
       is_visible="true"
       lpeversion="1" />
  </defs>
  <sodipodi:namedview
     id="base"
     pagecolor="#ffffff"
     bordercolor="#666666"
     borderopacity="1.0"
     inkscape:pageopacity="0.0"
     inkscape:pageshadow="2"
     inkscape:zoom="0.24748737"
     inkscape:cx="2036.787"
     inkscape:cy="-656.72086"
     inkscape:document-units="px"
     inkscape:current-layer="layer1"
     inkscape:document-rotation="0"
     showgrid="false"
     scale-x="1"
     units="px"
     inkscape:pagecheckerboard="true"
     showborder="false"
     inkscape:window-width="2560"
     inkscape:window-height="1377"
     inkscape:window-x="-8"
     inkscape:window-y="-8"
     inkscape:window-maximized="1" />
  <metadata
     id="metadata5">
    <rdf:RDF>
      <cc:Work
         rdf:about="">
        <dc:format>image/svg+xml</dc:format>
        <dc:type
           rdf:resource="http://purl.org/dc/dcmitype/StillImage" />
        <dc:title></dc:title>
      </cc:Work>
    </rdf:RDF>
  </metadata>
  <g
     inkscape:label="Layer 1"
     inkscape:groupmode="layer"
     id="layer1">
    <path
       style="fill:none;stroke:#000000;stroke-width:32.1383;stroke-linecap:butt;stroke-linejoin:round;stroke-miterlimit:4;stroke-dasharray:257.108, 32.1383;stroke-dashoffset:0;stroke-opacity:1;paint-order:normal"
       d="m -1501.8337,-223.65462 c 41.3178,28.92248 94.2875,40.65785 143.9549,31.89302 49.6674,-8.76484 95.4209,-37.92193 124.3433,-79.23976 28.9225,-41.31782 40.6579,-94.28754 31.8931,-143.95494 -8.7649,-49.6674 -37.922,-95.42081 -79.2398,-124.34329 -41.3178,-28.92248 -94.2875,-40.65785 -143.9549,-31.89302 -49.6674,8.76484 -95.4209,37.92193 -124.3433,79.23976 -28.9225,41.31782 -40.6579,94.28754 -31.8931,143.95494 8.7649,49.6674 37.922,95.42081 79.2398,124.34329 z"
       id="path30"
       inkscape:path-effect="#path-effect32"
       inkscape:original-d="m -1501.8337,-223.65462 c -73.6514,105.21397 147.3021,-210.42898 220.9515,-315.64497 73.6496,-105.21598 -147.2999,210.43098 -220.9515,315.64497 z" />
    <path
       style="fill:none;stroke:#000000;stroke-width:24.1808;stroke-linecap:butt;stroke-linejoin:miter;stroke-miterlimit:4;stroke-dasharray:none;stroke-opacity:1"
       d="m -1416.1916,-342.34084 c 10.2447,6.50008 23.1021,8.74277 34.9424,6.09493 11.8404,-2.64783 22.5178,-10.15359 29.0178,-20.39827 6.5001,-10.24468 8.7428,-23.10211 6.095,-34.94244 -2.6479,-11.84033 -10.1536,-22.51773 -20.3983,-29.01781 -10.2447,-6.50007 -23.1021,-8.74276 -34.9424,-6.09492 -11.8404,2.64783 -22.5178,10.15359 -29.0178,20.39827 -6.5001,10.24468 -8.7428,23.10211 -6.095,34.94244 2.6479,11.84033 10.1536,22.51773 20.3983,29.0178 z"
       id="path1195"
       inkscape:path-effect="#path-effect1197"
       inkscape:original-d="m -1416.1916,-342.34084 c -16.5531,26.08862 33.1053,-52.17649 49.6569,-78.26359 16.5516,-26.08711 -33.104,52.17496 -49.6569,78.26359 z" />
    <path
       style="fill:#000000;fill-opacity:1;stroke:#000000;stroke-width:0.904489;stroke-linecap:butt;stroke-linejoin:miter;stroke-miterlimit:4;stroke-dasharray:none;stroke-opacity:1;paint-order:normal"
       d="m -1401.0541,-397.90687 c -4.3025,2.53709 -7.534,6.82972 -8.7823,11.66602 -1.2484,4.83629 -0.4981,10.1567 2.039,14.45917 2.5371,4.30247 6.8297,7.53403 11.666,8.78234 4.8363,1.24832 10.1567,0.49803 14.4592,-2.03906 4.3025,-2.53708 7.534,-6.82971 8.7823,-11.66601 1.2484,-4.8363 0.4981,-10.1567 -2.039,-14.45917 -2.5371,-4.30247 -6.8297,-7.53403 -11.666,-8.78235 -4.8363,-1.24831 -10.1567,-0.49802 -14.4592,2.03906 z"
       id="path1199"
       inkscape:path-effect="#path-effect1201"
       inkscape:original-d="m -1401.0541,-397.90687 c -6.4615,-10.95706 12.9221,21.91322 19.3819,32.86847 6.4597,10.95526 -12.9204,-21.9114 -19.3819,-32.86847 z" />
  </g>
</svg>
