<svg width="1938.9mm" height="2609.8mm" version="1.1" viewBox="0 0 1938.9 2609.8" xmlns="http://www.w3.org/2000/svg" xmlns:xlink="http://www.w3.org/1999/xlink">
 <g transform="translate(882.29 1209.2)">
  <g transform="matrix(22.177 0 0 22.177 -2304.8 -2686.6)">
   <path transform="matrix(.011931 0 0 .011931 64.146 66.619)" d="m2708.1 631.33-1118.8 231.51-226.91 1119.7-627.42 954.81 631.33 952.23 231.5 1118.8 1119.7 226.91 954.81 627.42 954.81-627.42 1119.7-226.91 231.5-1118.8 631.33-952.23-627.42-954.81-226.91-1119.7-1118.8-231.51c-175.71-40.156-964.27-631.33-964.27-631.33s-654.89 426.21-964.27 631.33zm-1162.6 4581.4s-0.032-0.011-1529.4 3695.5c-9.3494 22.591-14.457 42.267-15.732 59.346-2.392e-4 0 2.3893e-4 0.012 0 0.012-0.079355 1.0641-0.14563 2.1181-0.19531 3.1621-1.5314e-4 0 1.5286e-4 0.01 0 0.01-0.049586 1.0438-0.083401 2.0777-0.10352 3.1016-6.356e-5 0 6.326e-5 0.01 0 0.01-0.020019 1.0238-0.02683 2.0389-0.017578 3.0429 2.939e-5 0-2.969e-5 0.01 0 0.01 0.0093597 1.0032 0.033874 1.997 0.072266 2.9805 1.255e-4 0-1.2579e-4 0.01 0 0.01 0.038511 0.984 0.092775 1.9592 0.16016 2.9239 2.2408e-4 0-2.2438e-4 0.01 0 0.01 0.067475 0.9644 0.14995 1.9182 0.24609 2.8633 22.547 221.93 832.69-86.916 1160.8 55.295 352.21 152.67 745.22 1098.4 892.12 743.75l1554.8-3753.7v-0.01l-949.13-606.1-1112.7-208.12zm4253.7 0-0.9707 4.1211-1112.7 208.12-949.13 606.1v0.01l1554.8 3753.7c146.9 354.65 539.91-591.08 892.12-743.75 328.07-142.21 1138.2 166.64 1160.8-55.297 0.084-0.9472 0.1821-1.9033 0.25-2.8672v-0.01c0.084-0.9639 0.1294-1.9451 0.168-2.9258v-0.01c0.038-0.9891 0.063-1.9767 0.072-2.9825v-0.012c0.01-1.0058 0-2.0184-0.018-3.041v-0.012c-8e-4 -1.0226-0.034-2.0519-0.084-3.0996-9e-4 0 0-0.012 0-0.012 0-1.0394-0.089-2.0938-0.168-3.1582-9e-4 0 0-0.012 0-0.012-1.2757-17.078-6.3835-36.755-15.732-59.346-1529.4-3695.5-1529.4-3695.5-1529.4-3695.5z" fill="#ffd05c" style="paint-order:stroke fill markers"/>
  </g>
 </g>
 <style/>
 <style/>
</svg>
