<svg width="85.555mm" height="184.53mm" version="1.1" viewBox="0 0 85.555 184.53" xmlns="http://www.w3.org/2000/svg">
 <g transform="translate(-82.711 -22.641)" fill="#bfbfbf">
  <path d="m156.07 207.17c-0.55821-11.644 12.125-16.618 12.125-16.618 1.1447 11.045-12.125 16.618-12.125 16.618zm5.7941-17.456s-18.025 17.883-29.295 4.8662c2e-3 0 24.436-15.529 29.295-4.8662zm-17.707-11.248s-8.0552 15.875-26.719 4.0095c0 0 15.828-13.681 26.719-4.0095zm-59.853-51.343s18.2-2.3303 20.783 21.526c0 0-21.504-5.9602-20.783-21.526zm-0.93506-31.304s-4.9556 22.046 12.335 24.402c0 0 3.7591-20.042-12.335-24.402zm60.927 58.413s21.457 5.3064 18.204 24.677c0 0-23.087-12.978-18.204-24.677zm-7.8974 8.7202s-16.666-9.432-9.8923-28.649c0-2e-3 17.771 8.8256 9.8923 28.649zm-22.543-20.973s-10.962-17.464-5e-3 -33.091c0 0 14.356 23.851 5e-3 33.091zm-10.168-36.025s-0.19785-24.595 21.268-25.249c0-0.0027-7.5064 28.04-21.268 25.249zm-8.4132-14.18s-13.976-2.9867-7.4145-28.18c-2e-3 -0.0027 16.23 5.8258 7.4145 28.18zm17.764-17.525s4.8661-18.392 20.39-16.455c0 0-6.1309 20.211-20.39 16.455zm-10.13-6.8934s-13.866-14.757 2.7675-38.002c0 0 10.903 17.208-2.7675 38.002zm15.291-13.565s-6.609-22.979 11.812-31.148c0 0 9.0962 15.118-11.812 31.148zm44.76 131.75c0.47107 0 0.92093-0.31369 1.1164-0.82509 0.2638-0.69066-0.0236-1.4894-0.63829-1.782-35.716-17.019-56.528-38.674-61.865-64.366-3.5424-17.053 0.62887-32.727 4.7483-42.873 4.4775-11.027 9.8429-18.049 9.897-18.118 0.43574-0.56676 0.37921-1.4235-0.12954-1.9138-0.50874-0.49031-1.2719-0.42705-1.7123 0.14235-0.23082 0.29524-5.6433 7.3916-10.264 18.766-4.2773 10.529-8.5969 26.814-4.8991 44.611 5.5209 26.582 26.808 48.873 63.273 66.25 0.15074 0.0712 0.31561 0.10812 0.47341 0.10812zm-64.755-26.772s13.284-9.1446 26.924 8.9944c0 0-18.192 11.715-26.924-8.9944z" fill="#bfbfbf" stroke-width="2.4918"/>
 </g>
</svg>
