<svg width="7558.5" height="7559.1" version="1.1" viewBox="0 0 7086.1 7086.6" xmlns="http://www.w3.org/2000/svg">
 <style/>
  <g id="logo_art">
   <path class="st12" d="m5298.1 743.36-533.04-1641.6c0.2955 0.73826 0.3545 1.5061 0.5611 2.2446-0.2953-0.85646-0.4133-1.7129-0.6497-2.5695h-0.029l-1058.2-3257.8c-57.882-171.62-217.15-286.79-399.75-285.37-183.13 0.9449-338.03 113.91-394.67 287.88l-1004.4 3092.1h-3169.2l-1006.3-3092.4c-56.586-173.83-211.51-286.76-394.62-287.71h-2.2149c-180.3 0-339.89 114.47-398.4 288l-1055.3 3254.8-0.2953 0.41341c-0.2953 0.827-0.3841 1.6538-0.6497 2.4808 0.2954-0.73825 0.3248-1.5061 0.561-2.2446l-534.98 1641.7c-80.475 247.84 6.8515 517.18 217.36 670.3l4619.5 3356.4c0.67916 0.502 1.447 0.7974 2.1264 1.2995 1.9786 1.4174 3.8984 2.8648 5.9067 4.1967-1.8901-1.2701-3.6592-2.6581-5.5227-3.9605 0.29536 0.2954 0.64968 0.3839 0.97451 0.5906 0.29537 0.2953 0.53162 0.2953 0.79751 0.4726 7.1471 4.9616 14.56 9.5097 22.239 13.674 1.0632 0.5908 2.0083 1.3291 3.0715 1.8903 0.64967 0.3248 1.2404 0.7381 1.8901 1.0631 0.50199 0.2954 1.0336 0.3839 1.5061 0.6202 0.32501 0.2955 0.73842 0.2955 1.0927 0.443 0.85645 0.4137 1.8016 0.6793 2.6581 1.1224 4.0164 1.9196 8.2398 3.4847 12.374 5.1682 3.8689 1.5949 7.6196 3.4555 11.577 4.8436 0.29538 0 0.32484 0 0.502 0.2953 0.64984 0.2952 1.2404 0.5612 1.9197 0.7974 0.82699 0.2952 1.6244 0.6202 2.4513 0.886 0.35431 0 0.64966 0 0.97452 0.2953 1.0338 0.3248 2.156 0.4725 3.1925 0.7679 0.38395 0 0.82698 0.2951 1.2404 0.2951 5.5524 1.6835 11.311 2.8945 17.041 4.1644 2.2446 0.5021 4.4004 1.2109 6.6746 1.6243 0.35432 0 0.62021 0.2953 0.97452 0.2953 0.73842 0 1.4176 0.4134 2.1854 0.5317 1.2109 0.2953 2.3922 0.5907 3.6327 0.7679 0.97466 0 1.9788 0 2.9533 0.2953h0.50214c10.895 1.5653 21.94 2.658 33.192 2.658h0.29536c11.282 0 22.327-1.0927 33.255-2.658h0.53162c0.97451 0 2.0083 0 2.9858-0.2953 1.2404-0.2954 2.4217-0.5611 3.6592-0.7679 0.7384 0 1.4177-0.3839 2.156-0.5317 0.32484 0 0.62021-0.2953 0.94504-0.2953 2.3036-0.443 4.5186-1.1518 6.8222-1.6539 5.638-1.2403 11.308-2.4513 16.831-4.1051 0.38394 0 0.76788 0 1.1518-0.2954 1.0927-0.3248 2.2149-0.4725 3.3076-0.7973 0.35448 0 0.67931 0 1.0042-0.2953 0.85646-0.2954 1.6835-0.6203 2.5104-0.9156 0.64967-0.2953 1.2404-0.5612 1.8901-0.7974 0.29535 0 0.35431 0 0.50199-0.2954 4.1967-1.4765 8.1512-3.4228 12.256-5.1092 3.8098-1.5948 7.7082-3.0123 11.429-4.7814 0.91556-0.4431 1.8902-0.7087 2.7762-1.1517 0.32484-0.2953 0.76789-0.2953 1.1222-0.4727 0.50215-0.2952 1.0338-0.3838 1.5358-0.6497 0.67931-0.3543 1.329-0.7678 1.9788-1.0928 1.0927-0.5611 2.0672-1.3584 3.16-1.9492 7.6197-4.1375 15.003-8.6531 22.12-13.585 0.56112-0.384 1.2109-0.6792 1.8015-1.0929 0 0 0.35448-0.2953 0.47269-0.2953 0.67913-0.5019 1.4766-0.8268 2.1558-1.329l4620.1-3356.4c210.39-153.04 297.72-422.38 217.24-670.21zm-1988.1-4594.7 906.06 2789.5h-1812.1zm747.39 3261.3-3096.6 3967.7 1289.9-3967.7zm-3959.5 5242.1c0.29536 0.7087 0.6202 1.3585 0.85647 2.0968-0.29521-0.7383-0.62021-1.3881-0.85647-2.0968zm-413.69-1274.3-3095-3968h1806.8zm-2349.2-7229 907.75 2789.6h-1812.1zm-1493.5 4883.5c-44.773-32.575-63.319-90.077-46.16-142.88l397.69-1220.4 2914 3735.9zm4333.9 3731.7c-0.91558-0.7384-1.8015-1.5357-2.6876-2.3038-0.29537 0-0.32484-0.3544-0.5611-0.5019-1.772-1.4768-3.5144-2.9859-5.2274-4.5187-3.3639-2.9237-6.6745-5.9067-9.8347-9.0371 0.29537 0.2952 0.56109 0.443 0.82699 0.6792 0.32484 0.3544 0.73826 0.5906 1.0927 0.9156 6.7631 6.4679 13.881 12.552 21.323 18.163l0.29537 0.2954c0.35447 0.2953 0.64968 0.5906 1.0042 0.8861-2.0378-1.4767-4.1672-2.8943-6.1724-4.489zm146.93-947.91-757.96-2334.8-672.34-2071.2h2862.7zm155.14 940.59c-1.772 1.5357-3.485 3.0715-5.2865 4.545-0.29538 0.2956-0.41341 0.384-0.62019 0.5612-0.91558 0.7384-1.772 1.5359-2.658 2.2739-1.9492 1.5656-4.0786 2.9861-6.1134 4.4893 0.32485-0.2953 0.64968-0.6202 1.0336-0.8565l0.29536-0.2954c7.4424-5.6113 14.53-11.636 21.235-18.104 0.2952-0.2954 0.59057-0.4725 0.85645-0.7087 0.35432-0.3248 0.73826-0.5906 1.0631-0.9156-3.1305 3.0422-6.4087 5.9955-9.6868 8.8897zm4325.9-3724.4-3265.1 2372 2915-3735 396.09 1219.9c17.188 53.039-1.3291 110.54-46.013 143.03z" stroke-width="29.533"/>
  </g>
</svg>
