<svg width="32px" height="32px" version="1.1" viewBox="0 0 1999.8 2e3" xmlns="http://www.w3.org/2000/svg">
	<style/>
	<path d="m262.19 113.38c-87.06 51.691-258.58 248.74-260.21 300.41v85.537c0 108.43 101.35 203.72 193.37 203.72 110.49 0 202.55-91.572 202.56-200.26 0 108.69 88.904 200.26 199.4 200.26 110.51 0 196.56-91.572 196.56-200.26 0 108.69 94.533 200.26 205.03 200.26h1.9887c110.51 0 205.04-91.572 205.04-200.26 0 108.69 86.057 200.26 196.55 200.26 110.5 0 199.41-91.572 199.41-200.26 0 108.69 92.075 200.26 202.56 200.26 92.017 0 193.37-95.281 193.37-203.72v-85.537c-1.6143-51.683-173.15-248.74-260.19-300.41-270.58-9.5003-458.17-11.143-737.74-11.103-279.57 0.0245-660.7 4.3925-737.73 11.103zm530.29 538.61a227.95 227.95 0 0 1-38.881 50.065c-41.711 40.784-98.886 66.064-161.91 66.064a231.67 231.67 0 0 1-162.26-66.096c-15.114-14.804-26.6-30.633-37.117-49.064v0.0288c-10.509 18.464-25.15 34.285-40.296 49.105a231.82 231.82 0 0 1-162.25 66.048c-7.5974 0-15.503-2.0982-21.899-4.2948-8.8802 92.499-12.63 180.9-13.956 245.35l-0.0192 0.366c-0.28836 32.731-0.31703 59.646-0.48997 97.038 1.7004 194.08-19.222 629.03 85.567 735.9 162.39 37.863 461.2 55.108 760.97 55.214 299.77 0 598.58-17.351 760.97-55.214 104.79-106.88 83.861-541.83 85.57-735.91-0.2884-37.384-0.317-64.299-0.49-97.038l-0.027-0.3661c-1.3258-64.47-5.067-152.86-13.95-245.36-6.3929 2.1962-14.29 4.2948-21.896 4.2948a231.82 231.82 0 0 1-162.26-66.047c-15.146-14.82-29.788-30.632-40.305-49.105v-0.0289c-10.523 18.432-22.003 34.269-37.114 49.064a231.66 231.66 0 0 1-162.25 66.089c-63.022 0-120.21-25.297-161.92-66.072a227.95 227.95 0 0 1-38.878-50.064 227.67 227.67 0 0 1-38.524 50.064 231.74 231.74 0 0 1-162.27 66.08c-2.1905 0-4.3896-0.0866-6.5859-0.17295-2.1905 0.0577-4.3923 0.17295-6.6146 0.17295a231.74 231.74 0 0 1-162.27-66.072 227.69 227.69 0 0 1-38.524-50.064zm-166.63 215.47-0.0192 0.0864c65.991 0.14409 124.61 0 197.25 79.274 57.166-5.9947 116.9-8.9882 176.68-8.8985 59.785-0.0864 119.52 2.9038 176.69 8.8985 72.637-79.282 131.26-79.144 197.25-79.274l-0.019-0.0864c31.18 0 155.9 0 242.8 244.08l93.346 334.83c69.17 249.09-22.15 255.19-136.06 255.41-168.93-6.2889-262.46-128.96-262.46-251.62-93.508 15.325-202.59 22.988-311.68 22.994-109.09 0-218.18-7.6695-311.68-22.994 0 122.66-93.539 245.34-262.46 251.62-113.91-0.2882-205.22-6.3033-136.05-255.41l93.372-334.83c86.901-244.08 211.62-244.08 242.8-244.08zm374.04 191.82v0.058c-0.28817 0.1729-177.83 163.33-209.77 221.37l116.35-4.6605v101.46c0 4.7499 46.689 2.8246 93.427 0.663 46.723 2.1616 93.421 4.0984 93.421-0.663v-101.46l116.35 4.6605c-31.949-58.036-209.77-221.37-209.77-221.37v-0.058l-0.0269 0.017z" stroke-width="8.134"/>
</svg>