<svg width="2396mm" height="2615mm" version="1.1" viewBox="0 0 2396 2615" xmlns="http://www.w3.org/2000/svg">
 <g transform="translate(1093 1159)">
  <g transform="matrix(2.1745 0 0 -2.1745 -422.57 281.56)">
   <path d="m117.78-344.21h166.42v303.25c0 16.23 1.0816 32.443 5.4761 44.045 12.031 32.427 39.414 66.011 85.389 66.011 60.221 0 84.311-49.798 84.311-122.8v-290.51h166.41v311.37c0 166.8-82.104 244.41-191.6 244.41-89.781 0-129.2-54.426-151.09-91.497h1.1112v78.754h-166.42c2.1839-50.955 0-543.03 0-543.03zm-92.088 0v543.03h-166.42v-543.03zm-83.213 617.18c58.035 0 94.158 41.699 94.158 93.81-1.0816 53.285-36.122 93.827-93.057 93.827-56.929 0-94.15-40.542-94.15-93.827 0-52.112 36.115-93.81 91.965-93.81h1.0816zm-250.79 303.37c0 47.564 36.454 86.146 81.424 86.146h939c44.969 0 81.424-38.582 81.424-86.146v-1030.3c0-47.58-36.455-86.146-81.424-86.146h-939c-44.97 0-81.424 38.565-81.424 86.146z" fill-rule="evenodd"/>
  </g>
 </g>
 <style/>
</svg>
