<svg width="32px" height="32px" version="1.1" viewBox="0 0 4.9348 7.3993" xmlns="http://www.w3.org/2000/svg">
 <g transform="translate(-112.07 -77.153)">
  <path d="m114.53 77.153c-1.5549 0.0039-2.7143 1.4307-2.4054 2.96 0.0594 0.2939 0.13882 0.492 0.33171 0.82717 0.69765 1.2122 1.3932 2.4211 2.0848 3.6121l2.0195-3.4979c0.22449-0.38596 0.27856-0.50098 0.34838-0.74118 0.46149-1.5872-0.72584-3.1644-2.379-3.1602zm0.012 1.2309a1.2489 1.2489 0 0 1 1.249 1.2489 1.2489 1.2489 0 0 1-1.249 1.2489 1.2489 1.2489 0 0 1-1.2489-1.2489 1.2489 1.2489 0 0 1 1.2489-1.2489z" stroke-width=".0074118"/>
 </g>
 <style/>
</svg>
